<?xml version="1.0" encoding="utf-8"?>
<!-- Generator: Adobe Illustrator 27.8.1, SVG Export Plug-In . SVG Version: 6.00 Build 0)  -->
<svg version="1.1" id="Capa_1" xmlns="http://www.w3.org/2000/svg" xmlns:xlink="http://www.w3.org/1999/xlink" x="0px" y="0px"
	 viewBox="0 0 512 512" style="enable-background:new 0 0 512 512;" xml:space="preserve">
<style type="text/css">
	.st0{fill:#FFFFFF;}
</style>
<path d="M412,492c-44.2,0-80-35.8-80-80s35.8-80,80-80s80,35.8,80,80S456.2,492,412,492z"/>
<g>
	<path d="M315.6,438.5c-18.8,6.1-38.8,9.5-59.6,9.5c-56.8,0-107.8-24.6-143-63.8c22.1-38.4,63.6-64.2,111-64.2h64
		c21.8,0,42.3,5.5,60.2,15c17.3-14.4,39.6-23,63.8-23c33.2,0,62.7,16.3,80.9,41.3c12.3-30,19.1-62.8,19.1-97.3
		C512,114.6,397.4,0,256,0S0,114.6,0,256s114.6,256,256,256c34.4,0,67.3-6.8,97.3-19.1C335.2,479.7,321.7,460.6,315.6,438.5z
		 M256,128c39.8,0,72,32.2,72,72s-32.2,72-72,72s-72-32.2-72-72S216.2,128,256,128z"/>
</g>
<path class="st0" d="M456.4,412c0-4.9-4-8.9-8.9-8.9h-71.1c-4.9,0-8.9,4-8.9,8.9s4,8.9,8.9,8.9h71.1
	C452.4,420.9,456.4,416.9,456.4,412z"/>
</svg>
